<?xml version="1.0" encoding="utf-8"?>
<!-- Generator: Fusion 360, Shaper Origin Export Add-In, Version 1.8.0  -->
<svg xmlns="http://www.w3.org/2000/svg" xmlns:xlink="http://www.w3.org/1999/xlink"
     xmlns:shaper="http://www.shapertools.com/namespaces/shaper" shaper:fusionaddin="version:1.8.0" width="7.1500001cm"
     height="2.3cm" version="1.1" x="0cm" y="0cm" viewBox="0 0 7.1500001 2.3" enable-background="new 0 0 7.1500001 2.3"
     xml:space="preserve"><path d="M0.9729905,0.9290606 A0.5,0.5 255.9637565 0,1 1.2060215,0.9267829 L1.9336866,1.0936575 A1.15,1.15 108.0092711 1,0 1.9336866,-1.0936575 L1.2641194,-0.9401065 A0.5,0.5 77.0837699 0,1 0.9287495,-0.9802419 L0.7948059,-1.0472136 A0.5,0.5 296.5650512 0,0 0.5711991,-1.1 L-3.210767,-1.1 A0.5,0.5 270 0,0 -3.710767,-0.6 L-3.710767,0.5 A0.5,0.5 180 0,0 -3.210767,1 L0.6892331,1 0.9729905,0.9290606z" transform="matrix(1,0,0,-1,3.710767,1.15)" fill="rgb(0,0,0)" shaper:cutDepth="0.15cm" stroke-linecap="round" stroke-linejoin="round" />
    <path d="M-3.442947,-0.0475202 a0.2,0.2 0 1,1 0.4,0 a0.2,0.2 0 1,1 -0.4,0z"
          transform="matrix(1,0,0,-1,3.710767,1.15)" fill="rgb(255,255,255)" stroke="rgb(0,0,0)" stroke-width="0.0010cm"
          stroke-linecap="round" stroke-linejoin="round" shaper:cutDepth="0.15cm"/></svg>