<?xml version="1.0" encoding="utf-8"?>
<!-- Generator: Fusion 360, Shaper Origin Export Add-In, Version 1.8.0  -->
<svg xmlns="http://www.w3.org/2000/svg" xmlns:xlink="http://www.w3.org/1999/xlink" xmlns:shaper="http://www.shapertools.com/namespaces/shaper" shaper:fusionaddin="version:1.8.0" width="16cm" height="6cm" version="1.1" x="0cm" y="0cm" viewBox="0 0 16 6" enable-background="new 0 0 16 6" xml:space="preserve"><path d="M7.5,3 L-7.5,3 -7.5,0.7499134 -8,0.7499134 -8,-0.7500866 -7.5,-0.7500866 -7.5,-3 7.5,-3 7.5,-0.7500866 8,-0.7500866 8,0.7499134 7.5,0.7499134 7.5,3z" transform="matrix(1,0,0,-1,8,3)" fill="rgb(0,0,0)" shaper:cutDepth="0.5037977cm" stroke-linecap="round" stroke-linejoin="round" /><path d="M-8,-0.7500866 L-7.5,-0.7500866 -7.5,0.7499134 -8,0.7499134 -8,-0.7500866z" transform="matrix(1,0,0,-1,8,3)" fill="rgb(100,100,100)" fill-rule="nonzero" shaper:cutDepth="0.0037477cm" stroke-linecap="round" stroke-linejoin="round" /><path d="M-7.5,3 L-7.5,0.7499134 -7.5,-0.7500866 -7.5,-3 7.5,-3 7.5,-0.7500866 7.5,0.7499134 7.5,3 -7.5,3z" transform="matrix(1,0,0,-1,8,3)" fill="rgb(100,100,100)" fill-rule="nonzero" shaper:cutDepth="0.0037977cm" stroke-linecap="round" stroke-linejoin="round" /></svg>