<?xml version="1.0" encoding="utf-8"?>
<!-- Generator: Fusion 360, Shaper Origin Export Add-In, Version 1.8.0  -->
<svg xmlns="http://www.w3.org/2000/svg" xmlns:xlink="http://www.w3.org/1999/xlink" xmlns:shaper="http://www.shapertools.com/namespaces/shaper" shaper:fusionaddin="version:1.8.0" width="31cm" height="22.2397428cm" version="1.1" x="0cm" y="0cm" viewBox="0 0 31 22.2397428" enable-background="new 0 0 31 22.2397428" xml:space="preserve"><path d="M9.85,-10.1198714 L6.85,-10.1198714 6.85,10.5198714 A0.6,0.6 0 0,1 6.25,11.1198714 L-20.55,11.1198714 A0.6,0.6 90 0,1 -21.15,10.5198714 L-21.15,-10.5198714 A0.6,0.6 180 0,1 -20.55,-11.1198714 L9.85,-11.1198714 9.85,-10.1198714z" transform="matrix(1,0,0,-1,21.15,11.1198714)" fill="rgb(0,0,0)" shaper:cutDepth="0.5cm" stroke-linecap="round" stroke-linejoin="round" /><path d="M3.85,9.1198714 L3.85,10.1198714 3.35,10.1198714 3.35,9.1198714 3.85,9.1198714z" transform="matrix(1,0,0,-1,21.15,11.1198714)" fill="rgb(255,255,255)" stroke="rgb(0,0,0)" stroke-width="0.0010cm" stroke-linecap="round" stroke-linejoin="round" shaper:cutDepth="0.5cm" /><path d="M-3.4833333,9.1198714 L-3.4833333,10.1198714 -3.9833333,10.1198714 -3.9833333,9.1198714 -3.4833333,9.1198714z" transform="matrix(1,0,0,-1,21.15,11.1198714)" fill="rgb(255,255,255)" stroke="rgb(0,0,0)" stroke-width="0.0010cm" stroke-linecap="round" stroke-linejoin="round" shaper:cutDepth="0.5cm" /><path d="M-10.8166667,9.1198714 L-10.8166667,10.1198714 -11.3166667,10.1198714 -11.3166667,9.1198714 -10.8166667,9.1198714z" transform="matrix(1,0,0,-1,21.15,11.1198714)" fill="rgb(255,255,255)" stroke="rgb(0,0,0)" stroke-width="0.0010cm" stroke-linecap="round" stroke-linejoin="round" shaper:cutDepth="0.5cm" /><path d="M-18.15,9.1198714 L-18.15,10.1198714 -18.65,10.1198714 -18.65,9.1198714 -18.15,9.1198714z" transform="matrix(1,0,0,-1,21.15,11.1198714)" fill="rgb(255,255,255)" stroke="rgb(0,0,0)" stroke-width="0.0010cm" stroke-linecap="round" stroke-linejoin="round" shaper:cutDepth="0.5cm" /><path d="M-9.275,8.1198714 L-5.9,8.1198714 -5.9,8.6198714 -9.275,8.6198714 -9.275,8.1198714z" transform="matrix(1,0,0,-1,21.15,11.1198714)" fill="rgb(255,255,255)" stroke="rgb(0,0,0)" stroke-width="0.0010cm" stroke-linecap="round" stroke-linejoin="round" shaper:cutDepth="0.5cm" /><path d="M-16.65,8.6198714 L-19.15,8.6198714 -19.15,8.1198714 -16.65,8.1198714 -16.65,8.6198714z" transform="matrix(1,0,0,-1,21.15,11.1198714)" fill="rgb(255,255,255)" stroke="rgb(0,0,0)" stroke-width="0.0010cm" stroke-linecap="round" stroke-linejoin="round" shaper:cutDepth="0.5cm" /><path d="M-14.65,8.1198714 L-11.275,8.1198714 -11.275,8.6198714 -14.65,8.6198714 -14.65,8.1198714z" transform="matrix(1,0,0,-1,21.15,11.1198714)" fill="rgb(255,255,255)" stroke="rgb(0,0,0)" stroke-width="0.0010cm" stroke-linecap="round" stroke-linejoin="round" shaper:cutDepth="0.5cm" /><path d="M4.85,8.6198714 L1.475,8.6198714 1.475,8.1198714 4.85,8.1198714 4.85,8.6198714z" transform="matrix(1,0,0,-1,21.15,11.1198714)" fill="rgb(255,255,255)" stroke="rgb(0,0,0)" stroke-width="0.0010cm" stroke-linecap="round" stroke-linejoin="round" shaper:cutDepth="0.5cm" /><path d="M-0.525,8.1198714 L-0.525,8.6198714 -3.9,8.6198714 -3.9,8.1198714 -0.525,8.1198714z" transform="matrix(1,0,0,-1,21.15,11.1198714)" fill="rgb(255,255,255)" stroke="rgb(0,0,0)" stroke-width="0.0010cm" stroke-linecap="round" stroke-linejoin="round" shaper:cutDepth="0.5cm" /><path d="M-11.85,-5.8801286 L-3.85,-5.8801286 A0.5,0.5 270 0,1 -3.35,-5.3801286 L-3.35,2.6198714 A0.5,0.5 0 0,1 -3.85,3.1198714 L-11.85,3.1198714 A0.5,0.5 90 0,1 -12.35,2.6198714 L-12.35,-5.3801286 A0.5,0.5 180 0,1 -11.85,-5.8801286z" transform="matrix(1,0,0,-1,21.15,11.1198714)" fill="rgb(255,255,255)" stroke="rgb(0,0,0)" stroke-width="0.0010cm" stroke-linecap="round" stroke-linejoin="round" shaper:cutDepth="0.5cm" /></svg>