<?xml version="1.0" encoding="utf-8"?>
<!-- Generator: Fusion 360, Shaper Origin Export Add-In, Version 1.8.0  -->
<svg xmlns="http://www.w3.org/2000/svg" xmlns:xlink="http://www.w3.org/1999/xlink" xmlns:shaper="http://www.shapertools.com/namespaces/shaper" shaper:fusionaddin="version:1.8.0" width="28cm" height="10.5cm" version="1.1" x="0cm" y="0cm" viewBox="0 0 28 10.5" enable-background="new 0 0 28 10.5" xml:space="preserve"><path d="M-12,4.7359852 L-14,4.7359852 -14,-4.65 A0.6,0.6 180 0,1 -13.4,-5.25 L13.4,-5.25 A0.6,0.6 270 0,1 14,-4.65 L14,4.7444252 12,4.7444252 12,5.25 9.5,5.25 9.5,4.7359852 7.5,4.7359852 7.5,5.25 4.125,5.25 4.125,4.7359852 2.125,4.7359852 2.125,5.25 -1.25,5.25 -1.25,4.7359852 -3.25,4.7359852 -3.25,5.25 -6.625,5.25 -6.625,4.7359852 -8.625,4.7359852 -8.625,5.25 -12,5.25 -12,4.7359852z" transform="matrix(1,0,0,-1,14,5.25)" fill="rgb(0,0,0)" shaper:cutDepth="0.5cm" stroke-linecap="round" stroke-linejoin="round" /><path d="M11,3.35 L11,0.85 11.5,0.85 11.5,3.35 11,3.35z" transform="matrix(1,0,0,-1,14,5.25)" fill="rgb(255,255,255)" stroke="rgb(0,0,0)" stroke-width="0.0010cm" stroke-linecap="round" stroke-linejoin="round" shaper:cutDepth="0.5cm" /><path d="M11,-3.15 L11.5,-3.15 11.5,-0.65 11,-0.65 11,-3.15z" transform="matrix(1,0,0,-1,14,5.25)" fill="rgb(255,255,255)" stroke="rgb(0,0,0)" stroke-width="0.0010cm" stroke-linecap="round" stroke-linejoin="round" shaper:cutDepth="0.5cm" /><path d="M4.1666667,-3.15 L4.1666667,-0.65 3.6666667,-0.65 3.6666667,-3.15 4.1666667,-3.15z" transform="matrix(1,0,0,-1,14,5.25)" fill="rgb(255,255,255)" stroke="rgb(0,0,0)" stroke-width="0.0010cm" stroke-linecap="round" stroke-linejoin="round" shaper:cutDepth="0.5cm" /><path d="M4.1666667,0.85 L4.1666667,3.35 3.6666667,3.35 3.6666667,0.85 4.1666667,0.85z" transform="matrix(1,0,0,-1,14,5.25)" fill="rgb(255,255,255)" stroke="rgb(0,0,0)" stroke-width="0.0010cm" stroke-linecap="round" stroke-linejoin="round" shaper:cutDepth="0.5cm" /><path d="M-11,0.85 L-10.5,0.85 -10.5,3.35 -11,3.35 -11,0.85z" transform="matrix(1,0,0,-1,14,5.25)" fill="rgb(255,255,255)" stroke="rgb(0,0,0)" stroke-width="0.0010cm" stroke-linecap="round" stroke-linejoin="round" shaper:cutDepth="0.5cm" /><path d="M-11,-3.15 L-10.5,-3.15 -10.5,-0.65 -11,-0.65 -11,-3.15z" transform="matrix(1,0,0,-1,14,5.25)" fill="rgb(255,255,255)" stroke="rgb(0,0,0)" stroke-width="0.0010cm" stroke-linecap="round" stroke-linejoin="round" shaper:cutDepth="0.5cm" /><path d="M-3.1666667,0.85 L-3.1666667,3.35 -3.6666667,3.35 -3.6666667,0.85 -3.1666667,0.85z" transform="matrix(1,0,0,-1,14,5.25)" fill="rgb(255,255,255)" stroke="rgb(0,0,0)" stroke-width="0.0010cm" stroke-linecap="round" stroke-linejoin="round" shaper:cutDepth="0.5cm" /><path d="M-3.1666667,-3.15 L-3.1666667,-0.65 -3.6666667,-0.65 -3.6666667,-3.15 -3.1666667,-3.15z" transform="matrix(1,0,0,-1,14,5.25)" fill="rgb(255,255,255)" stroke="rgb(0,0,0)" stroke-width="0.0010cm" stroke-linecap="round" stroke-linejoin="round" shaper:cutDepth="0.5cm" /></svg>