<?xml version="1.0" encoding="utf-8"?>
<!-- Generator: Fusion 360, Shaper Origin Export Add-In, Version 1.8.0  -->
<svg xmlns="http://www.w3.org/2000/svg" xmlns:xlink="http://www.w3.org/1999/xlink" xmlns:shaper="http://www.shapertools.com/namespaces/shaper" shaper:fusionaddin="version:1.8.0" width="16cm" height="5.5cm" version="1.1" x="0cm" y="0cm" viewBox="0 0 16 5.5" enable-background="new 0 0 16 5.5" xml:space="preserve"><path d="M-8,2.75 L-8,-2.75 8,-2.75 8,2.75 -8,2.75z" transform="matrix(1,0,0,-1,8,2.75)" fill="rgb(0,0,0)" shaper:cutDepth="0.5cm" stroke-linecap="round" stroke-linejoin="round" /><path d="M6,-1.55 L6,1.55 5.5,1.55 5.5,-1.55 6,-1.55z" transform="matrix(1,0,0,-1,8,2.75)" fill="rgb(255,255,255)" stroke="rgb(0,0,0)" stroke-width="0.0010cm" stroke-linecap="round" stroke-linejoin="round" shaper:cutDepth="0.5cm" /><path d="M-6,-1.55 L-5.5,-1.55 -5.5,1.55 -6,1.55 -6,-1.55z" transform="matrix(1,0,0,-1,8,2.75)" fill="rgb(255,255,255)" stroke="rgb(0,0,0)" stroke-width="0.0010cm" stroke-linecap="round" stroke-linejoin="round" shaper:cutDepth="0.5cm" /><path d="M-7.5,-1.55 L-7,-1.55 -7,1.55 -7.5,1.55 -7.5,-1.55z" transform="matrix(1,0,0,-1,8,2.75)" fill="rgb(255,255,255)" stroke="rgb(0,0,0)" stroke-width="0.0010cm" stroke-linecap="round" stroke-linejoin="round" shaper:cutDepth="0.5cm" /><path d="M7.5,-1.55 L7.5,1.55 7,1.55 7,-1.55 7.5,-1.55z" transform="matrix(1,0,0,-1,8,2.75)" fill="rgb(255,255,255)" stroke="rgb(0,0,0)" stroke-width="0.0010cm" stroke-linecap="round" stroke-linejoin="round" shaper:cutDepth="0.5cm" /></svg>