<?xml version="1.0" encoding="utf-8"?>
<!-- Generator: Fusion 360, Shaper Origin Export Add-In, Version 1.8.0  -->
<svg xmlns="http://www.w3.org/2000/svg" xmlns:xlink="http://www.w3.org/1999/xlink" xmlns:shaper="http://www.shapertools.com/namespaces/shaper" shaper:fusionaddin="version:1.8.0" width="19cm" height="5.5cm" version="1.1" x="0cm" y="0cm" viewBox="0 0 19 5.5" enable-background="new 0 0 19 5.5" xml:space="preserve"><path d="M9.5,1.55 L9,1.55 9,2.75 -9,2.75 -9,1.55 -9.5,1.55 -9.5,-1.55 -9,-1.55 -9,-2.75 9,-2.75 9,-1.55 9.5,-1.55 9.5,1.55z" transform="matrix(1,0,0,-1,9.5,2.75)" fill="rgb(0,0,0)" shaper:cutDepth="0.5cm" stroke-linecap="round" stroke-linejoin="round" /><path d="M-4.475,0 a0.475,0.475 0 1,1 0.95,0 a0.475,0.475 0 1,1 -0.95,0z" transform="matrix(1,0,0,-1,9.5,2.75)" fill="rgb(255,255,255)" stroke="rgb(0,0,0)" stroke-width="0.0010cm" stroke-linecap="round" stroke-linejoin="round" shaper:cutDepth="0.5cm" /><path d="M3.525,0 a0.475,0.475 0 1,1 0.95,0 a0.475,0.475 0 1,1 -0.95,0z" transform="matrix(1,0,0,-1,9.5,2.75)" fill="rgb(255,255,255)" stroke="rgb(0,0,0)" stroke-width="0.0010cm" stroke-linecap="round" stroke-linejoin="round" shaper:cutDepth="0.5cm" /></svg>