<?xml version="1.0" encoding="UTF-8" standalone="no"?>
<!-- Created with Inkscape (http://www.inkscape.org/) -->

<svg
   width="210mm"
   height="297mm"
   viewBox="0 0 210 297"
   version="1.1"
   id="svg1"
   xml:space="preserve"
   inkscape:version="1.3.2 (091e20e, 2023-11-25)"
   sodipodi:docname="avicenna.svg"
   xmlns:inkscape="http://www.inkscape.org/namespaces/inkscape"
   xmlns:sodipodi="http://sodipodi.sourceforge.net/DTD/sodipodi-0.dtd"
   xmlns="http://www.w3.org/2000/svg"
   xmlns:svg="http://www.w3.org/2000/svg"><sodipodi:namedview
     id="namedview1"
     pagecolor="#ffffff"
     bordercolor="#000000"
     borderopacity="0.25"
     inkscape:showpageshadow="2"
     inkscape:pageopacity="0.0"
     inkscape:pagecheckerboard="0"
     inkscape:deskcolor="#d1d1d1"
     inkscape:document-units="mm"
     inkscape:zoom="0.98177006"
     inkscape:cx="302.51483"
     inkscape:cy="422.19662"
     inkscape:window-width="1920"
     inkscape:window-height="1080"
     inkscape:window-x="0"
     inkscape:window-y="0"
     inkscape:window-maximized="0"
     inkscape:current-layer="layer1" /><defs
     id="defs1" /><g
     inkscape:label="Ebene 1"
     inkscape:groupmode="layer"
     id="layer1"><path
       style="fill:#000000"
       d="m 24.243853,120.68466 c 0,-0.52801 0.176389,-0.52917 80.301047,-0.52917 80.12465,0 80.30104,0.001 80.30104,0.52917 0,0.528 -0.17639,0.52916 -80.30104,0.52916 -80.124658,0 -80.301047,-0.001 -80.301047,-0.52916 z M 98.856355,97.941112 c -1.23692,-0.26455 -3.07949,-0.79673 -4.09459,-1.18262 -1.8627,-0.7081 -5.03112,-2.36505 -5.27404,-2.75809 -0.0723,-0.117 0.52429,-0.15835 1.32577,-0.0919 2.08746,0.1731 4.99462,-0.36572 8.48599,-1.57283 3.766765,-1.30233 6.245475,-1.43438 8.249335,-0.43948 2.00059,0.99327 3.03789,3.13535 2.52311,5.21031 -0.20877,0.8415 -0.35493,0.96979 -1.2937,1.13551 -2.07134,0.36565 -7.58753,0.19835 -9.921875,-0.30092 z m 13.156155,-0.97365 c -0.0772,-0.12518 -0.14491,-0.83995 -0.15056,-1.58838 -0.0194,-2.56768 -0.95063,-3.81708 -4.86965,-6.53335 -1.27331,-0.88253 -2.31511,-1.75373 -2.31511,-1.93601 0,-0.18228 0.14219,-0.6435 0.31599,-1.02493 0.24792,-0.54415 0.24403,-0.80872 -0.0181,-1.22842 -0.27921,-0.44709 -0.25994,-0.61681 0.1174,-1.03377 0.3687,-0.40741 0.39033,-0.57252 0.11797,-0.9007 -0.25315,-0.30502 -0.90826,-0.40183 -2.71921,-0.40183 -2.3857,0 -2.3857,0 -2.23294,-1.25677 0.084,-0.69123 0.58691,-2.74506 1.11755,-4.56407 2.71088,-9.29276 7.3266,-18.60096 11.34916,-22.88706 1.24101,-1.32231 1.24101,-1.32231 -0.0563,0.52977 -2.67892,3.82448 -4.8672,7.82511 -6.87433,12.56771 -2.06351,4.8758 -4.19297,11.62291 -3.90508,12.37312 0.28891,0.75291 4.52605,-0.15877 6.49204,-1.39685 1.06398,-0.67004 3.175,-2.88172 3.175,-3.32639 0,-0.18912 -0.35812,-0.25763 -0.97207,-0.18596 -0.97206,0.11349 -0.97206,0.11349 -0.0707,-0.56636 2.25183,-1.69842 4.74693,-4.51335 4.74693,-5.35542 0,-0.12057 -0.56555,-0.22034 -1.25678,-0.22171 -1.25677,-0.002 -1.25677,-0.002 0.16617,-0.81844 0.78262,-0.44879 1.94123,-1.34925 2.5747,-2.00105 1.34817,-1.38716 2.98747,-4.5436 3.20604,-6.17318 0.17006,-1.26791 0.3592,-1.20729 -2.0443,-0.65524 -0.63765,0.14646 -0.63289,0.13016 0.13229,-0.45296 1.6632,-1.26748 4.02511,-3.84679 4.85606,-5.30303 0.47571,-0.83367 0.97645,-1.58469 1.11276,-1.66894 0.61002,-0.37701 4.37284,4.74592 5.80358,7.90137 1.83486,4.04668 2.87155,9.68948 2.5372,13.81018 -0.80156,9.87871 -7.12613,18.94071 -16.1804,23.18369 -2.32259,1.0884 -3.90929,1.51415 -4.15534,1.11498 z m -27.499944,-6.92877 c -5.595466,-5.85671 -8.103919,-12.49491 -7.815795,-20.68321 0.140216,-3.98484 0.689073,-6.54781 2.137854,-9.983 3.511365,-8.32577 11.76038,-14.78535 21.02704,-16.46571 2.327435,-0.42205 7.061085,-0.36476 9.352015,0.11318 2.58363,0.539 3.64925,0.51285 6.00188,-0.1473 1.08524,-0.30452 2.37276,-0.50702 2.86115,-0.45001 0.56144,0.0656 0.88798,-0.0104 0.88798,-0.206415 0,-0.422079 4.90559,-0.523461 5.16316,-0.106705 0.13086,0.211739 -0.3149,0.25989 -1.56309,0.168842 -0.96039,-0.07005 -1.81313,-0.01902 -1.89498,0.113418 -0.0819,0.13243 -0.37849,0.24079 -0.65921,0.24079 -0.28071,0 -1.64176,0.36241 -3.02455,0.80536 -2.16738,0.69427 -2.72797,1.00331 -4.06433,2.24054 -0.8526,0.78935 -1.83601,1.85488 -2.18536,2.36783 -0.70981,1.04223 -0.96262,1.13237 -1.42032,0.50642 -0.34495,-0.47174 -0.67153,-0.0669 -2.4068,2.98366 -0.81543,1.4335 -1.17368,1.57404 -1.17368,0.46041 0,-0.33096 -0.11126,-0.6705 -0.24724,-0.75454 -0.34193,-0.21132 -2.45389,4.09921 -3.07355,6.27313 -0.27998,0.98227 -0.57375,1.78594 -0.6528,1.78594 -0.079,0 -0.29228,-0.38696 -0.47384,-0.8599 -0.33011,-0.85989 -0.33011,-0.85989 -0.80305,-0.24298 -1.227575,1.6013 -2.202275,5.17485 -2.559455,9.38378 -0.14648,1.72601 -0.23556,2.01302 -0.54508,1.75614 -0.43938,-0.36466 -0.52629,-0.17254 -0.74115,1.63843 -0.2113,1.78099 0.27375,4.33953 1.20912,6.37786 0.79808,1.73914 0.80947,1.81928 0.47966,3.37344 -0.33784,1.59198 -0.33784,1.59198 -2.65054,1.59198 -1.80592,0 -2.39039,0.0936 -2.66725,0.4272 -0.30406,0.36637 -0.26587,0.499 0.26825,0.9315 0.60705,0.49156 0.61051,0.51788 0.13685,1.04127 -0.41123,0.4544 -0.43953,0.65991 -0.18405,1.33673 0.16603,0.43988 0.24698,0.93993 0.17988,1.11123 -0.0671,0.17129 -1.11112,0.99793 -2.32005,1.83698 -1.20893,0.83904 -2.53846,1.88084 -2.95451,2.3151 -0.41605,0.43426 -0.95651,0.78957 -1.20102,0.78957 -0.244504,0 -1.334919,-0.93193 -2.423139,-2.07096 z"
       id="path1"
       sodipodi:nodetypes="sssssssscsssssscsssssssssssssssssssccsssssssssccsssssscssscsssssssssssssssssssssssssss" /><path
       style="font-weight:bold;font-size:7.76111px;-inkscape-font-specification:'sans-serif Bold';stroke-width:0.264583"
       d="m 19.248482,116.70324 -0.401698,-1.31878 h -2.019859 l -0.401698,1.31878 h -1.265728 l 1.955436,-5.56314 h 1.43626 l 1.963015,5.56314 z m -0.682128,-2.30408 q -0.557072,-1.79248 -0.629075,-2.02744 -0.06821,-0.23495 -0.09853,-0.37138 -0.125056,0.48507 -0.716235,2.39882 z m 5.654089,-3.23632 h 1.186147 l -1.883434,5.5404 H 22.24227 l -1.879644,-5.5404 h 1.186146 l 1.042141,3.29695 q 0.08716,0.2918 0.178112,0.68213 0.09474,0.38654 0.117478,0.53813 0.04168,-0.34865 0.28422,-1.22026 z m 3.956347,5.5404 h -2.520087 v -0.66697 l 0.67455,-0.31075 v -3.58496 l -0.67455,-0.31075 v -0.66697 h 2.520087 v 0.66697 l -0.674549,0.31075 v 3.58496 l 0.674549,0.31075 z m 3.300745,-4.64227 q -0.66318,0 -1.026983,0.50023 -0.363802,0.49644 -0.363802,1.387 0,1.85311 1.390785,1.85311 0.583599,0 1.413523,-0.2918 v 0.9853 q -0.682129,0.28422 -1.523421,0.28422 -1.208884,0 -1.849327,-0.73139 -0.640443,-0.73519 -0.640443,-2.10702 0,-0.86403 0.314537,-1.51205 0.314537,-0.65182 0.901926,-0.99667 0.591178,-0.34864 1.383205,-0.34864 0.807186,0 1.621951,0.39033 l -0.37896,0.95498 q -0.310748,-0.1478 -0.625285,-0.2577 -0.314537,-0.1099 -0.617706,-0.1099 z m 5.782937,4.64227 h -3.190846 v -5.5404 h 3.190846 v 0.96256 h -2.016069 v 1.21646 h 1.875854 v 0.96256 h -1.875854 v 1.42868 h 2.016069 z m 6.070946,0 h -1.493104 l -2.410188,-4.1913 h -0.03411 q 0.072,1.11035 0.072,1.58405 v 2.60725 h -1.049721 v -5.5404 h 1.481736 l 2.406399,4.14961 h 0.02653 q -0.05684,-1.08003 -0.05684,-1.52721 v -2.6224 h 1.057299 z m 6.309691,0 h -1.493104 l -2.410189,-4.1913 h -0.03411 q 0.072,1.11035 0.072,1.58405 v 2.60725 h -1.04972 v -5.5404 h 1.481735 l 2.406399,4.14961 h 0.02653 q -0.05684,-1.08003 -0.05684,-1.52721 v -2.6224 h 1.0573 z m 4.786271,0 -0.401698,-1.31878 h -2.019859 l -0.401698,1.31878 h -1.265728 l 1.955436,-5.56314 h 1.43626 l 1.963015,5.56314 z m -0.682129,-2.30408 q -0.557071,-1.79248 -0.629074,-2.02744 -0.06821,-0.23495 -0.09853,-0.37138 -0.125057,0.48507 -0.716235,2.39882 z m 4.661214,-3.23632 h 1.72427 q 1.178567,0 1.709112,0.33727 0.534334,0.33349 0.534334,1.06488 0,0.49644 -0.234955,0.81477 -0.231166,0.31832 -0.617706,0.38275 v 0.0379 q 0.526755,0.11748 0.757921,0.4396 0.234955,0.32211 0.234955,0.85645 0,0.75792 -0.549492,1.18235 -0.545703,0.42444 -1.485525,0.42444 h -2.072914 z m 1.174778,2.19418 h 0.682128 q 0.47749,0 0.689708,-0.1478 0.216008,-0.14779 0.216008,-0.48885 0,-0.31833 -0.234956,-0.45476 -0.231166,-0.14021 -0.735183,-0.14021 h -0.617705 z m 0,0.93224 v 1.44384 h 0.7655 q 0.485069,0 0.716235,-0.18569 0.231166,-0.18569 0.231166,-0.56844 0,-0.68971 -0.985297,-0.68971 z m 6.112632,2.41398 h -2.520087 v -0.66697 l 0.67455,-0.31075 v -3.58496 l -0.67455,-0.31075 v -0.66697 h 2.520087 v 0.66697 l -0.674549,0.31075 v 3.58496 l 0.674549,0.31075 z m 0.9474,0 v -5.5404 h 1.174777 v 4.57026 h 2.247236 v 0.97014 z m 8.981361,-2.82326 q 0,1.36805 -0.780658,2.09566 -0.776869,0.7276 -2.247236,0.7276 h -1.568896 v -5.5404 h 1.739429 q 1.356678,0 2.10702,0.71623 0.750341,0.71624 0.750341,2.00091 z m -1.220252,0.0303 q 0,-1.7849 -1.576476,-1.7849 h -0.625285 v 3.6077 h 0.504018 q 1.697743,0 1.697743,-1.8228 z m 6.878132,-2.74746 v 3.58496 q 0,0.61392 -0.276641,1.07625 -0.272851,0.46233 -0.792027,0.70866 -0.519176,0.24632 -1.227832,0.24632 -1.068668,0 -1.659847,-0.5457 -0.591178,-0.54949 -0.591178,-1.50068 v -3.56981 h 1.170988 v 3.39169 q 0,0.64045 0.257693,0.93983 0.257693,0.29937 0.852661,0.29937 0.57602,0 0.833713,-0.29937 0.261483,-0.30317 0.261483,-0.94741 v -3.38411 z m 6.271798,5.5404 H 86.05921 l -2.410188,-4.1913 h -0.03411 q 0.072,1.11035 0.072,1.58405 v 2.60725 h -1.049721 v -5.5404 h 1.481735 l 2.406399,4.14961 h 0.02653 q -0.05684,-1.08003 -0.05684,-1.52721 v -2.6224 h 1.0573 z m 3.497806,-3.11127 h 2.197971 v 2.87252 q -0.534335,0.17433 -1.008035,0.24254 -0.469911,0.072 -0.96256,0.072 -1.254359,0 -1.91754,-0.73518 -0.659391,-0.73897 -0.659391,-2.11839 0,-1.34152 0.7655,-2.09186 0.76929,-0.75034 2.129758,-0.75034 0.852661,0 1.644688,0.34106 l -0.390329,0.93982 q -0.606337,-0.30317 -1.261938,-0.30317 -0.761711,0 -1.220253,0.5116 -0.458542,0.5116 -0.458542,1.37563 0,0.90192 0.367592,1.37941 0.371381,0.4737 1.076247,0.4737 0.367592,0 0.746552,-0.0758 v -1.15583 h -1.04972 z m 6.787178,1.57269 q 0,0.75034 -0.541913,1.18236 -0.538124,0.43201 -1.500684,0.43201 -0.886767,0 -1.568896,-0.33348 v -1.09141 q 0.560861,0.25011 0.947401,0.35243 0.390329,0.10232 0.712446,0.10232 0.386539,0 0.591178,-0.14779 0.208428,-0.1478 0.208428,-0.4396 0,-0.16295 -0.09095,-0.28801 -0.09095,-0.12884 -0.269062,-0.24632 -0.174322,-0.11748 -0.716235,-0.37517 -0.507807,-0.23875 -0.761711,-0.45854 -0.253903,-0.2198 -0.405488,-0.5116 -0.151584,-0.2918 -0.151584,-0.68213 0,-0.73518 0.496438,-1.15583 0.500228,-0.42064 1.379416,-0.42064 0.432015,0 0.822345,0.10232 0.394118,0.10231 0.822344,0.28801 l -0.378961,0.91329 q -0.443383,-0.1819 -0.735183,-0.2539 -0.28801,-0.072 -0.568441,-0.072 -0.333485,0 -0.511596,0.15538 -0.178112,0.15537 -0.178112,0.40549 0,0.15537 0.072,0.27285 0.072,0.11369 0.227376,0.22358 0.159164,0.10611 0.746552,0.38654 0.776869,0.37138 1.064879,0.74656 0.28801,0.37138 0.28801,0.91329 z m 0.708656,-0.29559 v -0.9474 h 2.035016 v 0.9474 z m 9.659706,-3.70623 v 3.58496 q 0,0.61392 -0.27664,1.07625 -0.27286,0.46233 -0.79203,0.70866 -0.51918,0.24632 -1.22783,0.24632 -1.06867,0 -1.65985,-0.5457 -0.59118,-0.54949 -0.59118,-1.50068 v -3.56981 h 1.17099 v 3.39169 q 0,0.64045 0.25769,0.93983 0.2577,0.29937 0.85266,0.29937 0.57602,0 0.83372,-0.29937 0.26148,-0.30317 0.26148,-0.94741 v -3.38411 z m 6.27179,5.5404 h -1.4931 l -2.41019,-4.1913 h -0.0341 q 0.072,1.11035 0.072,1.58405 v 2.60725 h -1.04972 v -5.5404 h 1.48173 l 2.4064,4.14961 h 0.0265 q -0.0568,-1.08003 -0.0568,-1.52721 v -2.6224 h 1.0573 z m 5.99137,-2.82326 q 0,1.36805 -0.78066,2.09566 -0.77687,0.7276 -2.24723,0.7276 h -1.5689 v -5.5404 h 1.73943 q 1.35668,0 2.10702,0.71623 0.75034,0.71624 0.75034,2.00091 z m -1.22025,0.0303 q 0,-1.7849 -1.57648,-1.7849 h -0.62528 v 3.6077 h 0.50401 q 1.69775,0 1.69775,-1.8228 z m 8.84114,2.79294 h -1.33394 l -1.45142,-2.3344 -0.49643,0.35623 v 1.97817 h -1.17478 v -5.5404 h 1.17478 v 2.53524 l 0.46233,-0.65181 1.50068,-1.88343 h 1.30362 l -1.93269,2.45187 z m 5.20692,-5.5404 v 3.58496 q 0,0.61392 -0.27664,1.07625 -0.27285,0.46233 -0.79203,0.70866 -0.51917,0.24632 -1.22783,0.24632 -1.06867,0 -1.65985,-0.5457 -0.59118,-0.54949 -0.59118,-1.50068 v -3.56981 h 1.17099 v 3.39169 q 0,0.64045 0.2577,0.93983 0.25769,0.29937 0.85266,0.29937 0.57602,0 0.83371,-0.29937 0.26148,-0.30317 0.26148,-0.94741 v -3.38411 z m 1.35668,5.5404 v -5.5404 h 1.17478 v 4.57026 h 2.24723 v 0.97014 z m 6.44611,0 h -1.17477 v -4.56268 h -1.50448 v -0.97772 h 4.18373 v 0.97772 h -1.50448 z m 6.86677,-5.5404 v 3.58496 q 0,0.61392 -0.27665,1.07625 -0.27285,0.46233 -0.79202,0.70866 -0.51918,0.24632 -1.22784,0.24632 -1.06866,0 -1.65984,-0.5457 -0.59118,-0.54949 -0.59118,-1.50068 v -3.56981 h 1.17099 v 3.39169 q 0,0.64045 0.25769,0.93983 0.25769,0.29937 0.85266,0.29937 0.57602,0 0.83371,-0.29937 0.26149,-0.30317 0.26149,-0.94741 v -3.38411 z m 2.53145,2.45945 h 0.37896 q 0.55708,0 0.82235,-0.18569 0.26527,-0.18569 0.26527,-0.5836 0,-0.39412 -0.27285,-0.56086 -0.26906,-0.16674 -0.8375,-0.16674 h -0.35623 z m 0,0.95498 v 2.12597 h -1.17477 v -5.5404 h 1.61437 q 1.1293,0 1.67121,0.41306 0.54192,0.40928 0.54192,1.24678 0,0.48886 -0.26907,0.87161 -0.26906,0.37896 -0.76171,0.59497 l 1.62953,2.41398 h -1.30362 l -1.32257,-2.12597 z m 7.34047,2.12597 -0.4017,-1.31878 h -2.01985 l -0.4017,1.31878 h -1.26573 l 1.95544,-5.56314 h 1.43626 l 1.96301,5.56314 z m -0.68213,-2.30408 q -0.55707,-1.79248 -0.62907,-2.02744 -0.0682,-0.23495 -0.0985,-0.37138 -0.12506,0.48507 -0.71624,2.39882 z m 7.10172,2.30408 h -1.33394 l -1.45142,-2.3344 -0.49644,0.35623 v 1.97817 h -1.17478 v -5.5404 h 1.17478 v 2.53524 l 0.46233,-0.65181 1.50068,-1.88343 h 1.30363 l -1.9327,2.45187 z m 4.08897,0 -0.4017,-1.31878 h -2.01985 l -0.4017,1.31878 h -1.26573 l 1.95544,-5.56314 h 1.43626 l 1.96301,5.56314 z m -0.68213,-2.30408 q -0.55707,-1.79248 -0.62907,-2.02744 -0.0682,-0.23495 -0.0985,-0.37138 -0.12506,0.48507 -0.71624,2.39882 z m 7.24195,-0.51918 q 0,1.36805 -0.78066,2.09566 -0.77687,0.7276 -2.24724,0.7276 h -1.56889 v -5.5404 h 1.73943 q 1.35667,0 2.10702,0.71623 0.75034,0.71624 0.75034,2.00091 z m -1.22025,0.0303 q 0,-1.7849 -1.57648,-1.7849 h -0.62528 v 3.6077 h 0.50401 q 1.69775,0 1.69775,-1.8228 z m 5.55935,2.79294 h -3.19085 v -5.5404 h 3.19085 v 0.96256 h -2.01607 v 1.21646 h 1.87585 v 0.96256 h -1.87585 v 1.42868 h 2.01607 z m 3.50159,0 -1.33394,-4.34668 h -0.0341 q 0.072,1.32636 0.072,1.76975 v 2.57693 h -1.04972 v -5.5404 h 1.59921 l 1.3112,4.23678 h 0.0227 l 1.39079,-4.23678 h 1.59921 v 5.5404 h -1.0952 v -2.62241 q 0,-0.18569 0.004,-0.42822 0.008,-0.24254 0.0531,-1.28847 h -0.0341 l -1.42868,4.3391 z m 7.04487,0 h -2.52009 v -0.66697 l 0.67455,-0.31075 v -3.58496 l -0.67455,-0.31075 v -0.66697 h 2.52009 v 0.66697 l -0.67455,0.31075 v 3.58496 l 0.67455,0.31075 z m 4.13824,0 h -3.19084 v -5.5404 h 3.19084 v 0.96256 h -2.01607 v 1.21646 h 1.87586 v 0.96256 h -1.87586 v 1.42868 h 2.01607 z"
       id="text1"
       aria-label="AVICENNA BILDUNGS- UND KULTURAKADEMIE" /><path
       style="font-weight:bold;font-size:7.76111px;-inkscape-font-specification:'sans-serif Bold';stroke-width:0.264583"
       d="M 26.787897,130.64389 H 24.26781 v -0.66697 l 0.67455,-0.31075 v -3.58496 l -0.67455,-0.31075 v -0.66697 h 2.520087 v 0.66697 l -0.674549,0.31075 v 3.58496 l 0.674549,0.31075 z m -1.894802,-6.61286 q 0,-0.56465 0.629074,-0.56465 0.629075,0 0.629075,0.56465 0,0.26906 -0.159164,0.42065 -0.155374,0.14779 -0.469911,0.14779 -0.629074,0 -0.629074,-0.56844 z m 2.842203,1.07246 h 1.72427 q 1.178567,0 1.709112,0.33727 0.534334,0.33349 0.534334,1.06488 0,0.49644 -0.234955,0.81477 -0.231166,0.31832 -0.617706,0.38275 v 0.0379 q 0.526755,0.11748 0.757921,0.4396 0.234955,0.32211 0.234955,0.85645 0,0.75792 -0.549492,1.18235 -0.545703,0.42444 -1.485525,0.42444 h -2.072914 z m 1.174778,2.19418 h 0.682128 q 0.477491,0 0.689708,-0.14779 0.216008,-0.1478 0.216008,-0.48886 0,-0.31833 -0.234956,-0.45476 -0.231165,-0.14021 -0.735183,-0.14021 h -0.617705 z m 0,0.93224 v 1.44384 h 0.7655 q 0.485069,0 0.716235,-0.18569 0.231166,-0.18569 0.231166,-0.56844 0,-0.68971 -0.985297,-0.68971 z m 8.954834,2.41398 h -1.493104 l -2.410188,-4.1913 h -0.03411 q 0.072,1.11035 0.072,1.58405 v 2.60725 h -1.049721 v -5.5404 h 1.481736 l 2.406399,4.14962 h 0.02653 q -0.05684,-1.08004 -0.05684,-1.52722 v -2.6224 h 1.057299 z m 1.098987,-1.83417 v -0.9474 h 2.035017 v 0.9474 z m 5.206916,1.83417 h -2.520087 v -0.66697 l 0.674549,-0.31075 v -3.58496 l -0.674549,-0.31075 v -0.66697 h 2.520087 v 0.66697 l -0.67455,0.31075 v 3.58496 l 0.67455,0.31075 z m -1.894803,-6.61286 q 0,-0.56465 0.629075,-0.56465 0.629074,0 0.629074,0.56465 0,0.26906 -0.159163,0.42065 -0.155374,0.14779 -0.469911,0.14779 -0.629075,0 -0.629075,-0.56844 z m 8.128702,5.07428 q 0,0.75034 -0.541913,1.18236 -0.538124,0.43201 -1.500684,0.43201 -0.886767,0 -1.568896,-0.33348 v -1.09141 q 0.560862,0.25012 0.947401,0.35243 0.39033,0.10232 0.712446,0.10232 0.38654,0 0.591178,-0.14779 0.208429,-0.1478 0.208429,-0.43959 0,-0.16296 -0.09095,-0.28801 -0.09095,-0.12885 -0.269062,-0.24633 -0.174322,-0.11748 -0.716235,-0.37517 -0.507807,-0.23875 -0.761711,-0.45854 -0.253903,-0.2198 -0.405487,-0.5116 -0.151584,-0.2918 -0.151584,-0.68213 0,-0.73518 0.496438,-1.15583 0.500228,-0.42064 1.379416,-0.42064 0.432015,0 0.822344,0.10232 0.394119,0.10232 0.822344,0.28801 l -0.37896,0.91329 q -0.443384,-0.1819 -0.735184,-0.2539 -0.28801,-0.072 -0.56844,-0.072 -0.333486,0 -0.511597,0.15538 -0.178111,0.15537 -0.178111,0.40549 0,0.15537 0.072,0.27285 0.072,0.11369 0.227376,0.22358 0.159164,0.10611 0.746553,0.38654 0.776868,0.37139 1.064878,0.74656 0.28801,0.37138 0.28801,0.91329 z m 3.077159,1.53858 h -2.520087 v -0.66697 l 0.674549,-0.31075 v -3.58496 l -0.674549,-0.31075 v -0.66697 h 2.520087 v 0.66697 l -0.67455,0.31075 v 3.58496 l 0.67455,0.31075 z m -1.894802,-6.61286 q 0,-0.56465 0.629074,-0.56465 0.629074,0 0.629074,0.56465 0,0.26906 -0.159163,0.42065 -0.155374,0.14779 -0.469911,0.14779 -0.629074,0 -0.629074,-0.56844 z m 7.75732,6.61286 h -1.493104 l -2.410188,-4.1913 h -0.03411 q 0.072,1.11035 0.072,1.58405 v 2.60725 h -1.049721 v -5.5404 h 1.481736 l 2.406398,4.14962 h 0.02653 q -0.05684,-1.08004 -0.05684,-1.52722 v -2.6224 h 1.057299 z m 4.78627,0 -0.401698,-1.31878 h -2.019859 l -0.401699,1.31878 h -1.265727 l 1.955435,-5.56314 h 1.436261 l 1.963015,5.56314 z m -0.682129,-2.30408 q -0.557072,-1.79248 -0.629074,-2.02744 -0.06821,-0.23495 -0.09853,-0.37138 -0.125057,0.48507 -0.716235,2.39882 z m 7.852061,2.30408 h -3.190847 v -5.5404 h 3.190847 v 0.96256 h -2.01607 v 1.21646 h 1.875854 v 0.96256 h -1.875854 v 1.42868 h 2.01607 z m 3.259059,-3.11126 h 2.197971 v 2.87252 q -0.534335,0.17432 -1.008035,0.24253 -0.469911,0.072 -0.96256,0.072 -1.254359,0 -1.91754,-0.73518 -0.659391,-0.73897 -0.659391,-2.11839 0,-1.34152 0.7655,-2.09186 0.76929,-0.75034 2.129758,-0.75034 0.852661,0 1.644688,0.34106 l -0.390329,0.93982 q -0.606337,-0.30317 -1.261938,-0.30317 -0.761711,0 -1.220253,0.5116 -0.458542,0.5116 -0.458542,1.37563 0,0.90192 0.367592,1.37941 0.371381,0.4737 1.076247,0.4737 0.367592,0 0.746552,-0.0758 v -1.15583 h -1.04972 z m 1.762166,-4.15341 q -0.04547,0.5836 -0.462332,0.93224 -0.416856,0.34865 -1.04593,0.34865 -0.659392,0 -1.05351,-0.34486 -0.39033,-0.34485 -0.420647,-0.93603 h 0.644233 q 0.01516,0.17811 0.102319,0.28043 0.09095,0.10232 0.250114,0.14779 0.162953,0.0455 0.48507,0.0455 0.780658,0 0.841292,-0.4737 z m 3.827501,7.26467 H 77.62923 v -0.66697 l 0.67455,-0.31075 v -3.58496 l -0.67455,-0.31075 v -0.66697 h 2.520087 v 0.66697 l -0.67455,0.31075 v 3.58496 l 0.67455,0.31075 z m -1.894802,-6.61286 q 0,-0.56465 0.629074,-0.56465 0.629074,0 0.629074,0.56465 0,0.26906 -0.159163,0.42065 -0.155374,0.14779 -0.469911,0.14779 -0.629074,0 -0.629074,-0.56844 z m 4.979542,6.61286 H 82.05928 v -4.56268 h -1.504473 v -0.97772 h 4.183723 v 0.97772 h -1.504473 z m 4.430046,0 h -2.520087 v -0.66697 l 0.674549,-0.31075 v -3.58496 l -0.674549,-0.31075 v -0.66697 h 2.520087 v 0.66697 l -0.67455,0.31075 v 3.58496 l 0.67455,0.31075 z M 85.7693,124.03103 q 0,-0.56465 0.629075,-0.56465 0.629074,0 0.629074,0.56465 0,0.26906 -0.159163,0.42065 -0.155374,0.14779 -0.469911,0.14779 -0.629075,0 -0.629075,-0.56844 z m 5.187967,6.61286 -1.33394,-4.34668 h -0.03411 q 0.072,1.32637 0.072,1.76975 v 2.57693 h -1.049721 v -5.5404 h 1.599213 l 1.311203,4.23678 h 0.02274 l 1.390785,-4.23678 h 1.599213 v 5.5404 h -1.095196 v -2.62241 q 0,-0.18569 0.0038,-0.42822 0.0076,-0.24254 0.05305,-1.28847 h -0.03411 l -1.428681,4.3391 z m 10.148563,-5.5404 h 1.18615 l -1.88344,5.5404 h -1.280884 l -1.879643,-5.5404 h 1.186146 l 1.042141,3.29695 q 0.08716,0.2918 0.178111,0.68213 0.09474,0.38654 0.117478,0.53813 0.04169,-0.34865 0.284221,-1.22026 z m 5.07428,5.5404 h -3.19085 v -5.5404 h 3.19085 v 0.96256 h -2.01607 v 1.21646 h 1.87585 v 0.96256 h -1.87585 v 1.42868 h 2.01607 z m 7.62847,0 h -1.33394 l -1.45142,-2.3344 -0.49644,0.35623 v 1.97817 h -1.17477 v -5.5404 h 1.17477 v 2.53524 l 0.46234,-0.65181 1.50068,-1.88343 h 1.30362 l -1.93269,2.45187 z m 5.20692,-5.5404 v 3.58496 q 0,0.61392 -0.27664,1.07625 -0.27285,0.46233 -0.79203,0.70866 -0.51918,0.24632 -1.22783,0.24632 -1.06867,0 -1.65985,-0.5457 -0.59118,-0.54949 -0.59118,-1.50068 v -3.56981 h 1.17099 v 3.39169 q 0,0.64045 0.25769,0.93983 0.2577,0.29938 0.85267,0.29938 0.57602,0 0.83371,-0.29938 0.26148,-0.30317 0.26148,-0.9474 v -3.38412 z m -3.56602,-1.06488 q 0,-0.24632 0.14022,-0.37896 0.144,-0.13264 0.38654,-0.13264 0.25011,0 0.39033,0.14022 0.144,0.14021 0.144,0.37138 0,0.22738 -0.144,0.36759 -0.14401,0.13643 -0.39033,0.13643 -0.24254,0 -0.38654,-0.13264 -0.14022,-0.13264 -0.14022,-0.37138 z m 1.52721,0 q 0,-0.26527 0.15159,-0.38654 0.15537,-0.12506 0.38275,-0.12506 0.24632,0 0.39033,0.13643 0.14779,0.13642 0.14779,0.37517 0,0.23117 -0.14779,0.36759 -0.1478,0.13643 -0.39033,0.13643 -0.22738,0 -0.38275,-0.12127 -0.15159,-0.12506 -0.15159,-0.38275 z m 3.39549,6.60528 v -5.5404 h 1.17478 v 4.57026 h 2.24723 v 0.97014 z m 6.44611,0 h -1.17477 v -4.56268 h -1.50448 v -0.97772 h 4.18373 v 0.97772 h -1.50448 z m 6.86677,-5.5404 v 3.58496 q 0,0.61392 -0.27664,1.07625 -0.27285,0.46233 -0.79203,0.70866 -0.51917,0.24632 -1.22783,0.24632 -1.06867,0 -1.65984,-0.5457 -0.59118,-0.54949 -0.59118,-1.50068 v -3.56981 h 1.17098 v 3.39169 q 0,0.64045 0.2577,0.93983 0.25769,0.29938 0.85266,0.29938 0.57602,0 0.83371,-0.29938 0.26148,-0.30317 0.26148,-0.9474 v -3.38412 z m -3.56602,-1.06488 q 0,-0.24632 0.14022,-0.37896 0.144,-0.13264 0.38654,-0.13264 0.25011,0 0.39033,0.14022 0.144,0.14021 0.144,0.37138 0,0.22738 -0.144,0.36759 -0.14401,0.13643 -0.39033,0.13643 -0.24254,0 -0.38654,-0.13264 -0.14022,-0.13264 -0.14022,-0.37138 z m 1.52721,0 q 0,-0.26527 0.15159,-0.38654 0.15537,-0.12506 0.38275,-0.12506 0.24632,0 0.39033,0.13643 0.14779,0.13642 0.14779,0.37517 0,0.23117 -0.14779,0.36759 -0.1478,0.13643 -0.39033,0.13643 -0.22738,0 -0.38275,-0.12127 -0.15159,-0.12506 -0.15159,-0.38275 z m 4.57026,3.52433 h 0.37896 q 0.55707,0 0.82235,-0.18569 0.26527,-0.18569 0.26527,-0.5836 0,-0.39412 -0.27285,-0.56086 -0.26906,-0.16674 -0.8375,-0.16674 h -0.35623 z m 0,0.95498 v 2.12597 h -1.17477 v -5.5404 h 1.61437 q 1.1293,0 1.67121,0.41307 0.54192,0.40927 0.54192,1.24678 0,0.48885 -0.26907,0.8716 -0.26906,0.37896 -0.76171,0.59497 l 1.62953,2.41398 h -1.30362 l -1.32257,-2.12597 z m 9.35654,2.12597 -0.4017,-1.31878 h -2.01986 l -0.4017,1.31878 h -1.26572 l 1.95543,-5.56314 h 1.43626 l 1.96302,5.56314 z m -0.68213,-2.30408 q -0.55707,-1.79248 -0.62907,-2.02744 -0.0682,-0.23495 -0.0985,-0.37138 -0.12506,0.48507 -0.71624,2.39882 z m 7.10172,2.30408 h -1.33394 l -1.45142,-2.3344 -0.49644,0.35623 v 1.97817 h -1.17477 v -5.5404 h 1.17477 v 2.53524 l 0.46234,-0.65181 1.50068,-1.88343 h 1.30362 l -1.9327,2.45187 z m 4.08898,0 -0.40169,-1.31878 h -2.01986 l -0.4017,1.31878 h -1.26573 l 1.95544,-5.56314 h 1.43626 l 1.96301,5.56314 z m -0.68212,-2.30408 q -0.55708,-1.79248 -0.62908,-2.02744 -0.0682,-0.23495 -0.0985,-0.37138 -0.12506,0.48507 -0.71623,2.39882 z m 7.24192,-0.51917 q 0,1.36804 -0.78065,2.09565 -0.77687,0.7276 -2.24724,0.7276 h -1.5689 v -5.5404 h 1.73943 q 1.35668,0 2.10702,0.71623 0.75034,0.71624 0.75034,2.00092 z m -1.22025,0.0303 q 0,-1.7849 -1.57647,-1.7849 h -0.62529 v 3.6077 h 0.50402 q 1.69774,0 1.69774,-1.8228 z m 5.55935,2.79294 h -3.19084 v -5.5404 h 3.19084 v 0.96256 h -2.01607 v 1.21646 h 1.87586 v 0.96256 h -1.87586 v 1.42868 h 2.01607 z m 3.5016,0 -1.33394,-4.34668 h -0.0341 q 0.072,1.32637 0.072,1.76975 v 2.57693 h -1.04972 v -5.5404 h 1.59921 l 1.3112,4.23678 h 0.0227 l 1.39078,-4.23678 h 1.59922 v 5.5404 h -1.0952 v -2.62241 q 0,-0.18569 0.004,-0.42822 0.008,-0.24254 0.0531,-1.28847 h -0.0341 l -1.42868,4.3391 z m 7.04487,0 h -2.52009 v -0.66697 l 0.67455,-0.31075 v -3.58496 l -0.67455,-0.31075 v -0.66697 h 2.52009 v 0.66697 l -0.67455,0.31075 v 3.58496 l 0.67455,0.31075 z m -1.89481,-6.61286 q 0,-0.56465 0.62908,-0.56465 0.62907,0 0.62907,0.56465 0,0.26906 -0.15916,0.42065 -0.15537,0.14779 -0.46991,0.14779 -0.62908,0 -0.62908,-0.56844 z m 6.11265,5.07428 q 0,0.75034 -0.54192,1.18236 -0.53812,0.43201 -1.50068,0.43201 -0.88677,0 -1.5689,-0.33348 v -1.09141 q 0.56087,0.25012 0.9474,0.35243 0.39033,0.10232 0.71245,0.10232 0.38654,0 0.59118,-0.14779 0.20843,-0.1478 0.20843,-0.43959 0,-0.16296 -0.091,-0.28801 -0.0909,-0.12885 -0.26907,-0.24633 -0.17432,-0.11748 -0.71623,-0.37517 -0.50781,-0.23875 -0.76171,-0.45854 -0.2539,-0.2198 -0.40549,-0.5116 -0.15158,-0.2918 -0.15158,-0.68213 0,-0.73518 0.49644,-1.15583 0.50022,-0.42064 1.37941,-0.42064 0.43202,0 0.82235,0.10232 0.39411,0.10232 0.82234,0.28801 l -0.37896,0.91329 q -0.44338,-0.1819 -0.73518,-0.2539 -0.28801,-0.072 -0.56844,-0.072 -0.33349,0 -0.5116,0.15538 -0.17811,0.15537 -0.17811,0.40549 0,0.15537 0.072,0.27285 0.072,0.11369 0.22738,0.22358 0.15916,0.10611 0.74655,0.38654 0.77687,0.37139 1.06488,0.74656 0.28801,0.37138 0.28801,0.91329 z m 3.07716,1.53858 h -2.52009 v -0.66697 l 0.67455,-0.31075 v -3.58496 l -0.67455,-0.31075 v -0.66697 h 2.52009 v 0.66697 l -0.67455,0.31075 v 3.58496 l 0.67455,0.31075 z m -1.89481,-6.61286 q 0,-0.56465 0.62908,-0.56465 0.62907,0 0.62907,0.56465 0,0.26906 -0.15916,0.42065 -0.15538,0.14779 -0.46991,0.14779 -0.62908,0 -0.62908,-0.56844 z"
       id="text1-3"
       aria-label="İBN-İ SİNA EĞİTİM VE KÜLTÜR AKADEMİSİ" /></g></svg>
